<svg width="324" height="248" viewBox="0 0 324 248" fill="none" xmlns="http://www.w3.org/2000/svg">
<g opacity="0.42">
<path d="M19.4439 8.81818V35H15.4808V12.7812H15.3274L9.06321 16.8722V13.0881L15.5959 8.81818H19.4439Z" fill="white"/>
<path d="M135.979 35V32.1364L144.839 22.9574C145.785 21.9602 146.565 21.0866 147.178 20.3366C147.8 19.5781 148.265 18.858 148.572 18.1761C148.879 17.4943 149.032 16.7699 149.032 16.0028C149.032 15.1335 148.827 14.3835 148.418 13.7528C148.009 13.1136 147.451 12.6236 146.744 12.2827C146.036 11.9332 145.239 11.7585 144.353 11.7585C143.415 11.7585 142.597 11.9503 141.898 12.3338C141.2 12.7173 140.663 13.2585 140.288 13.9574C139.913 14.6562 139.725 15.4744 139.725 16.4119H135.954C135.954 14.8182 136.32 13.4247 137.053 12.2315C137.786 11.0384 138.792 10.1136 140.07 9.45739C141.349 8.79261 142.802 8.46023 144.43 8.46023C146.075 8.46023 147.523 8.78835 148.776 9.4446C150.038 10.0923 151.022 10.9787 151.729 12.1037C152.437 13.2202 152.79 14.4815 152.79 15.8878C152.79 16.8594 152.607 17.8097 152.241 18.7386C151.883 19.6676 151.256 20.7031 150.362 21.8452C149.467 22.9787 148.222 24.3551 146.629 25.9744L141.425 31.4205V31.6122H153.212V35H135.979Z" fill="white"/>
<path d="M273.532 35.358C271.776 35.358 270.208 35.0554 268.827 34.4503C267.455 33.8452 266.369 33.0057 265.567 31.9318C264.775 30.8494 264.349 29.5966 264.289 28.1733H268.303C268.354 28.9489 268.614 29.6222 269.083 30.1932C269.56 30.7557 270.183 31.1903 270.95 31.4972C271.717 31.804 272.569 31.9574 273.506 31.9574C274.538 31.9574 275.45 31.7784 276.242 31.4205C277.043 31.0625 277.67 30.5639 278.121 29.9247C278.573 29.277 278.799 28.5312 278.799 27.6875C278.799 26.8097 278.573 26.0384 278.121 25.3736C277.678 24.7003 277.026 24.1719 276.165 23.7884C275.313 23.4048 274.282 23.2131 273.072 23.2131H270.86V19.9915H273.072C274.043 19.9915 274.896 19.8168 275.629 19.4673C276.37 19.1179 276.95 18.6321 277.367 18.0099C277.785 17.3793 277.994 16.642 277.994 15.7983C277.994 14.9886 277.81 14.2855 277.444 13.6889C277.086 13.0838 276.575 12.6108 275.91 12.2699C275.254 11.929 274.478 11.7585 273.583 11.7585C272.731 11.7585 271.934 11.9162 271.192 12.2315C270.46 12.5384 269.863 12.9815 269.403 13.5611C268.942 14.1321 268.695 14.8182 268.661 15.6193H264.839C264.881 14.2045 265.299 12.9602 266.092 11.8864C266.893 10.8125 267.95 9.97301 269.262 9.3679C270.575 8.76278 272.032 8.46023 273.634 8.46023C275.313 8.46023 276.762 8.78835 277.981 9.4446C279.208 10.0923 280.154 10.9574 280.819 12.0398C281.492 13.1222 281.825 14.3068 281.816 15.5938C281.825 17.0597 281.415 18.304 280.589 19.3267C279.771 20.3494 278.68 21.0355 277.316 21.3849V21.5895C279.055 21.8537 280.401 22.544 281.356 23.6605C282.319 24.777 282.796 26.1619 282.788 27.8153C282.796 29.2557 282.396 30.5469 281.586 31.6889C280.785 32.831 279.69 33.7301 278.3 34.3864C276.911 35.0341 275.322 35.358 273.532 35.358Z" fill="white"/>
<path d="M5.69141 99.8864V96.6903L17.0053 78.8182H19.5238V83.5227H17.9258L9.83345 96.3324V96.5369H25.3406V99.8864H5.69141ZM18.1048 105V98.9148L18.1303 97.4574V78.8182H21.8761V105H18.1048Z" fill="white"/>
<path d="M144.498 105.358C142.896 105.358 141.456 105.051 140.177 104.438C138.907 103.815 137.893 102.963 137.135 101.881C136.376 100.798 135.971 99.5625 135.92 98.1733H139.756C139.849 99.2983 140.348 100.223 141.251 100.947C142.155 101.672 143.237 102.034 144.498 102.034C145.504 102.034 146.395 101.804 147.17 101.344C147.954 100.875 148.568 100.232 149.011 99.4134C149.463 98.5952 149.689 97.6619 149.689 96.6136C149.689 95.5483 149.459 94.598 148.998 93.7628C148.538 92.9276 147.903 92.2713 147.094 91.794C146.292 91.3168 145.372 91.0739 144.332 91.0653C143.54 91.0653 142.743 91.2017 141.942 91.4744C141.14 91.7472 140.493 92.1051 139.998 92.5483L136.381 92.0114L137.851 78.8182H152.246V82.206H141.136L140.305 89.5312H140.459C140.97 89.0369 141.648 88.6236 142.491 88.2912C143.344 87.9588 144.256 87.7926 145.227 87.7926C146.821 87.7926 148.24 88.1719 149.484 88.9304C150.737 89.6889 151.721 90.7244 152.437 92.0369C153.162 93.3409 153.52 94.8409 153.511 96.5369C153.52 98.233 153.136 99.7457 152.361 101.075C151.594 102.405 150.528 103.453 149.165 104.22C147.809 104.979 146.254 105.358 144.498 105.358Z" fill="white"/>
<path d="M273.716 105.358C272.548 105.341 271.398 105.128 270.264 104.719C269.139 104.31 268.116 103.628 267.196 102.673C266.275 101.719 265.538 100.436 264.984 98.8253C264.439 97.2145 264.166 95.2031 264.166 92.7912C264.166 90.5071 264.392 88.4787 264.844 86.706C265.304 84.9332 265.964 83.4375 266.825 82.2188C267.686 80.9915 268.726 80.0582 269.944 79.419C271.163 78.7798 272.531 78.4602 274.048 78.4602C275.608 78.4602 276.993 78.767 278.203 79.3807C279.413 79.9943 280.393 80.8423 281.143 81.9247C281.902 83.0071 282.383 84.2386 282.588 85.6193H278.689C278.425 84.5284 277.9 83.6378 277.116 82.9474C276.332 82.2571 275.309 81.9119 274.048 81.9119C272.131 81.9119 270.635 82.7472 269.561 84.4176C268.496 86.0881 267.959 88.4105 267.95 91.3849H268.142C268.594 90.6435 269.148 90.0128 269.804 89.4929C270.469 88.9645 271.21 88.5597 272.028 88.2784C272.855 87.9886 273.724 87.8438 274.636 87.8438C276.153 87.8438 277.525 88.2145 278.753 88.956C279.988 89.6889 280.973 90.7031 281.706 91.9986C282.439 93.294 282.805 94.777 282.805 96.4474C282.805 98.1179 282.426 99.6307 281.667 100.986C280.917 102.341 279.861 103.415 278.497 104.207C277.133 104.991 275.54 105.375 273.716 105.358ZM273.703 102.034C274.709 102.034 275.608 101.787 276.4 101.293C277.193 100.798 277.819 100.134 278.28 99.2983C278.74 98.4631 278.97 97.5298 278.97 96.4986C278.97 95.4929 278.744 94.5767 278.292 93.75C277.849 92.9233 277.236 92.267 276.452 91.7812C275.676 91.2955 274.79 91.0526 273.792 91.0526C273.034 91.0526 272.331 91.1974 271.683 91.4872C271.044 91.777 270.481 92.1776 269.996 92.6889C269.51 93.2003 269.126 93.7884 268.845 94.4531C268.572 95.1094 268.436 95.804 268.436 96.5369C268.436 97.517 268.662 98.4247 269.113 99.2599C269.574 100.095 270.2 100.768 270.993 101.28C271.794 101.783 272.697 102.034 273.703 102.034Z" fill="white"/>
<path d="M8.47674 175L19.9057 152.398V152.206H6.68697V148.818H23.9966V152.321L12.606 175H8.47674Z" fill="white"/>
<path d="M144.514 245.435C142.494 245.426 140.769 244.893 139.337 243.837C137.905 242.78 136.81 241.241 136.051 239.222C135.293 237.202 134.914 234.768 134.914 231.922C134.914 229.084 135.293 226.659 136.051 224.648C136.818 222.636 137.918 221.102 139.35 220.045C140.79 218.989 142.512 218.46 144.514 218.46C146.517 218.46 148.235 218.993 149.666 220.058C151.098 221.115 152.193 222.649 152.952 224.661C153.719 226.663 154.102 229.084 154.102 231.922C154.102 234.777 153.723 237.214 152.965 239.234C152.206 241.246 151.111 242.784 149.679 243.849C148.247 244.906 146.526 245.435 144.514 245.435ZM144.514 242.021C146.287 242.021 147.672 241.156 148.669 239.426C149.675 237.696 150.178 235.195 150.178 231.922C150.178 229.749 149.948 227.912 149.487 226.412C149.036 224.903 148.384 223.761 147.531 222.986C146.688 222.202 145.682 221.81 144.514 221.81C142.75 221.81 141.365 222.679 140.36 224.418C139.354 226.156 138.847 228.658 138.838 231.922C138.838 234.104 139.064 235.949 139.516 237.457C139.976 238.957 140.628 240.095 141.472 240.871C142.316 241.638 143.33 242.021 144.514 242.021Z" fill="white"/>
<path d="M144.492 175.358C142.66 175.358 141.04 175.043 139.634 174.412C138.236 173.781 137.141 172.912 136.349 171.804C135.556 170.696 135.164 169.435 135.172 168.02C135.164 166.912 135.39 165.893 135.85 164.964C136.319 164.027 136.954 163.247 137.755 162.625C138.556 161.994 139.451 161.594 140.439 161.423V161.27C139.135 160.955 138.091 160.256 137.307 159.173C136.523 158.091 136.135 156.847 136.144 155.44C136.135 154.102 136.489 152.909 137.205 151.861C137.93 150.804 138.922 149.973 140.184 149.368C141.445 148.763 142.881 148.46 144.492 148.46C146.086 148.46 147.509 148.767 148.762 149.381C150.023 149.986 151.016 150.817 151.741 151.874C152.465 152.922 152.831 154.111 152.84 155.44C152.831 156.847 152.431 158.091 151.638 159.173C150.846 160.256 149.814 160.955 148.545 161.27V161.423C149.525 161.594 150.407 161.994 151.191 162.625C151.983 163.247 152.614 164.027 153.083 164.964C153.56 165.893 153.803 166.912 153.812 168.02C153.803 169.435 153.403 170.696 152.61 171.804C151.817 172.912 150.718 173.781 149.312 174.412C147.914 175.043 146.307 175.358 144.492 175.358ZM144.492 172.124C145.574 172.124 146.512 171.945 147.305 171.587C148.097 171.22 148.711 170.713 149.145 170.065C149.58 169.409 149.802 168.642 149.81 167.764C149.802 166.852 149.563 166.047 149.094 165.348C148.634 164.649 148.008 164.099 147.215 163.699C146.422 163.298 145.515 163.098 144.492 163.098C143.461 163.098 142.545 163.298 141.743 163.699C140.942 164.099 140.312 164.649 139.851 165.348C139.391 166.047 139.165 166.852 139.174 167.764C139.165 168.642 139.374 169.409 139.8 170.065C140.235 170.713 140.853 171.22 141.654 171.587C142.455 171.945 143.401 172.124 144.492 172.124ZM144.492 159.94C145.361 159.94 146.133 159.766 146.806 159.416C147.479 159.067 148.008 158.581 148.391 157.959C148.783 157.337 148.983 156.608 148.992 155.773C148.983 154.955 148.787 154.239 148.404 153.625C148.029 153.011 147.505 152.538 146.831 152.206C146.158 151.865 145.378 151.695 144.492 151.695C143.589 151.695 142.796 151.865 142.114 152.206C141.441 152.538 140.917 153.011 140.542 153.625C140.167 154.239 139.983 154.955 139.992 155.773C139.983 156.608 140.171 157.337 140.555 157.959C140.938 158.581 141.466 159.067 142.14 159.416C142.822 159.766 143.606 159.94 144.492 159.94Z" fill="white"/>
<path d="M273.281 148.46C274.449 148.469 275.599 148.682 276.733 149.099C277.866 149.517 278.889 150.199 279.801 151.145C280.721 152.091 281.454 153.369 282 154.98C282.554 156.582 282.835 158.577 282.844 160.963C282.844 163.256 282.613 165.297 282.153 167.087C281.693 168.868 281.032 170.372 280.172 171.599C279.319 172.827 278.284 173.76 277.065 174.399C275.846 175.038 274.474 175.358 272.949 175.358C271.389 175.358 270.004 175.051 268.794 174.438C267.584 173.824 266.599 172.976 265.841 171.893C265.082 170.803 264.609 169.55 264.422 168.135H268.321C268.577 169.26 269.096 170.172 269.881 170.871C270.673 171.561 271.696 171.906 272.949 171.906C274.866 171.906 276.362 171.071 277.436 169.401C278.51 167.722 279.051 165.378 279.059 162.369H278.855C278.412 163.102 277.858 163.733 277.193 164.261C276.537 164.79 275.8 165.199 274.981 165.489C274.163 165.778 273.29 165.923 272.361 165.923C270.852 165.923 269.48 165.553 268.244 164.811C267.008 164.07 266.024 163.051 265.291 161.756C264.558 160.46 264.192 158.982 264.192 157.32C264.192 155.666 264.567 154.166 265.317 152.82C266.075 151.473 267.132 150.408 268.487 149.624C269.851 148.831 271.449 148.443 273.281 148.46ZM273.294 151.784C272.297 151.784 271.398 152.031 270.596 152.526C269.804 153.011 269.177 153.672 268.717 154.507C268.257 155.334 268.027 156.254 268.027 157.268C268.027 158.283 268.248 159.203 268.692 160.03C269.143 160.848 269.757 161.5 270.532 161.986C271.317 162.463 272.211 162.702 273.217 162.702C273.967 162.702 274.666 162.557 275.314 162.267C275.961 161.977 276.528 161.577 277.014 161.065C277.5 160.545 277.879 159.957 278.152 159.301C278.425 158.645 278.561 157.955 278.561 157.23C278.561 156.267 278.331 155.372 277.871 154.545C277.419 153.719 276.797 153.054 276.004 152.551C275.211 152.04 274.308 151.784 273.294 151.784Z" fill="white"/>
<circle cx="46" cy="12" r="4.75" stroke="white" stroke-width="0.5"/>
<g style="mix-blend-mode:difference">
<path d="M46 8.5L49.0311 13.75H42.9689L46 8.5Z" fill="white"/>
</g>
<circle cx="46" cy="32" r="4.75" transform="rotate(-180 46 32)" stroke="white" stroke-width="0.5"/>
<g style="mix-blend-mode:difference">
<path d="M46 35.5L42.9689 30.25H49.0311L46 35.5Z" fill="white"/>
</g>
<circle cx="56" cy="22" r="4.75" transform="rotate(90 56 22)" stroke="white" stroke-width="0.5"/>
<g style="mix-blend-mode:difference">
<path d="M59.5 22L54.25 25.0311V18.9689L59.5 22Z" fill="white"/>
</g>
<circle cx="36" cy="22" r="4.75" transform="rotate(-90 36 22)" fill="white" stroke="white" stroke-width="0.5"/>
<g style="mix-blend-mode:difference">
<path d="M32.5 22L37.75 18.9689V25.0311L32.5 22Z" fill="white"/>
</g>
<circle cx="175" cy="12" r="4.75" fill="white" stroke="white" stroke-width="0.5"/>
<g style="mix-blend-mode:difference">
<path d="M175 8.5L178.031 13.75H171.969L175 8.5Z" fill="white"/>
</g>
<circle cx="175" cy="32" r="4.75" transform="rotate(-180 175 32)" stroke="white" stroke-width="0.5"/>
<g style="mix-blend-mode:difference">
<path d="M175 35.5L171.969 30.25H178.031L175 35.5Z" fill="white"/>
</g>
<circle cx="185" cy="22" r="4.75" transform="rotate(90 185 22)" stroke="white" stroke-width="0.5"/>
<g style="mix-blend-mode:difference">
<path d="M188.5 22L183.25 25.0311V18.9689L188.5 22Z" fill="white"/>
</g>
<circle cx="165" cy="22" r="4.75" transform="rotate(-90 165 22)" stroke="white" stroke-width="0.5"/>
<g style="mix-blend-mode:difference">
<path d="M161.5 22L166.75 18.9689V25.0311L161.5 22Z" fill="white"/>
</g>
<circle cx="304" cy="12" r="4.75" stroke="white" stroke-width="0.5"/>
<g style="mix-blend-mode:difference">
<path d="M304 8.5L307.031 13.75H300.969L304 8.5Z" fill="white"/>
</g>
<circle cx="304" cy="32" r="4.75" transform="rotate(-180 304 32)" stroke="white" stroke-width="0.5"/>
<g style="mix-blend-mode:difference">
<path d="M304 35.5L300.969 30.25H307.031L304 35.5Z" fill="white"/>
</g>
<circle cx="314" cy="22" r="4.75" transform="rotate(90 314 22)" fill="white" stroke="white" stroke-width="0.5"/>
<g style="mix-blend-mode:difference">
<path d="M317.5 22L312.25 25.0311V18.9689L317.5 22Z" fill="white"/>
</g>
<circle cx="294" cy="22" r="4.75" transform="rotate(-90 294 22)" stroke="white" stroke-width="0.5"/>
<g style="mix-blend-mode:difference">
<path d="M290.5 22L295.75 18.9689V25.0311L290.5 22Z" fill="white"/>
</g>
<circle cx="46" cy="84" r="4.75" stroke="white" stroke-width="0.5"/>
<g style="mix-blend-mode:difference">
<path d="M46 80.5L49.0311 85.75H42.9689L46 80.5Z" fill="white"/>
</g>
<circle cx="46" cy="104" r="4.75" transform="rotate(-180 46 104)" fill="white" stroke="white" stroke-width="0.5"/>
<g style="mix-blend-mode:difference">
<path d="M46 107.5L42.9689 102.25H49.0311L46 107.5Z" fill="white"/>
</g>
<circle cx="56" cy="94" r="4.75" transform="rotate(90 56 94)" stroke="white" stroke-width="0.5"/>
<g style="mix-blend-mode:difference">
<path d="M59.5 94L54.25 97.0311V90.9689L59.5 94Z" fill="white"/>
</g>
<circle cx="36" cy="94" r="4.75" transform="rotate(-90 36 94)" stroke="white" stroke-width="0.5"/>
<g style="mix-blend-mode:difference">
<path d="M32.5 94L37.75 90.9689V97.0311L32.5 94Z" fill="white"/>
</g>
<path d="M163.511 102V84.5455H169.733C171.085 84.5455 172.207 84.7784 173.099 85.2443C173.997 85.7102 174.668 86.3551 175.111 87.179C175.554 87.9972 175.776 88.9432 175.776 90.017C175.776 91.0852 175.551 92.0256 175.102 92.8381C174.659 93.6449 173.989 94.2727 173.091 94.7216C172.199 95.1705 171.077 95.3949 169.724 95.3949H165.011V93.1278H169.486C170.338 93.1278 171.031 93.0057 171.565 92.7614C172.105 92.517 172.5 92.1619 172.75 91.696C173 91.2301 173.125 90.6705 173.125 90.017C173.125 89.358 172.997 88.7869 172.741 88.304C172.491 87.821 172.097 87.4517 171.557 87.196C171.023 86.9347 170.321 86.804 169.452 86.804H166.145V102H163.511ZM172.128 94.125L176.44 102H173.44L169.213 94.125H172.128ZM185.364 84.5455V102H182.722V87.1875H182.619L178.443 89.9148V87.392L182.798 84.5455H185.364Z" fill="white"/>
<path d="M290.824 103V85.5455H297.045C298.398 85.5455 299.52 85.7784 300.412 86.2443C301.31 86.7102 301.98 87.3551 302.423 88.179C302.866 88.9972 303.088 89.9432 303.088 91.017C303.088 92.0852 302.864 93.0256 302.415 93.8381C301.972 94.6449 301.301 95.2727 300.403 95.7216C299.511 96.1705 298.389 96.3949 297.037 96.3949H292.324V94.1278H296.798C297.651 94.1278 298.344 94.0057 298.878 93.7614C299.418 93.517 299.812 93.1619 300.062 92.696C300.312 92.2301 300.438 91.6705 300.438 91.017C300.438 90.358 300.31 89.7869 300.054 89.304C299.804 88.821 299.409 88.4517 298.869 88.196C298.335 87.9347 297.634 87.804 296.764 87.804H293.457V103H290.824ZM299.44 95.125L303.753 103H300.753L296.526 95.125H299.44ZM306.054 103V101.091L311.96 94.9716C312.591 94.3068 313.111 93.7244 313.52 93.2244C313.935 92.7187 314.244 92.2386 314.449 91.7841C314.653 91.3295 314.756 90.8466 314.756 90.3352C314.756 89.7557 314.619 89.2557 314.347 88.8352C314.074 88.4091 313.702 88.0824 313.23 87.8551C312.759 87.6222 312.227 87.5057 311.636 87.5057C311.011 87.5057 310.466 87.6335 310 87.8892C309.534 88.1449 309.176 88.5057 308.926 88.9716C308.676 89.4375 308.551 89.983 308.551 90.608H306.037C306.037 89.5455 306.281 88.6165 306.77 87.821C307.259 87.0256 307.929 86.4091 308.781 85.9716C309.634 85.5284 310.602 85.3068 311.688 85.3068C312.784 85.3068 313.75 85.5256 314.585 85.9631C315.426 86.3949 316.082 86.9858 316.554 87.7358C317.026 88.4801 317.261 89.321 317.261 90.2585C317.261 90.9062 317.139 91.5398 316.895 92.1591C316.656 92.7784 316.239 93.4687 315.642 94.2301C315.045 94.9858 314.216 95.9034 313.153 96.983L309.685 100.614V100.741H317.543V103H306.054Z" fill="white"/>
<path d="M36.0231 168V150.545H38.6566V165.733H46.5657V168H36.0231ZM54.8519 150.545V168H52.2099V153.188H52.1076L47.9315 155.915V153.392L52.2866 150.545H54.8519Z" fill="white"/>
<path d="M162.785 169V151.545H165.418V166.733H173.327V169H162.785ZM176.093 169V167.091L181.999 160.972C182.63 160.307 183.15 159.724 183.559 159.224C183.974 158.719 184.283 158.239 184.488 157.784C184.692 157.33 184.795 156.847 184.795 156.335C184.795 155.756 184.658 155.256 184.386 154.835C184.113 154.409 183.741 154.082 183.269 153.855C182.798 153.622 182.266 153.506 181.675 153.506C181.05 153.506 180.505 153.634 180.039 153.889C179.573 154.145 179.215 154.506 178.965 154.972C178.715 155.437 178.59 155.983 178.59 156.608H176.076C176.076 155.545 176.32 154.616 176.809 153.821C177.298 153.026 177.968 152.409 178.82 151.972C179.673 151.528 180.641 151.307 181.727 151.307C182.823 151.307 183.789 151.526 184.624 151.963C185.465 152.395 186.121 152.986 186.593 153.736C187.065 154.48 187.3 155.321 187.3 156.259C187.3 156.906 187.178 157.54 186.934 158.159C186.695 158.778 186.278 159.469 185.681 160.23C185.085 160.986 184.255 161.903 183.192 162.983L179.724 166.614V166.741H187.582V169H176.093Z" fill="white"/>
<circle cx="175" cy="220" r="4.75" stroke="white" stroke-width="0.5"/>
<circle cx="185" cy="230" r="4.75" stroke="white" stroke-width="0.5"/>
<circle cx="165" cy="230" r="4.75" fill="white" stroke="white" stroke-width="0.5"/>
<circle cx="175" cy="240" r="4.75" stroke="white" stroke-width="0.5"/>
<circle cx="304" cy="150" r="4.75" fill="white" stroke="white" stroke-width="0.5"/>
<circle cx="314" cy="160" r="4.75" stroke="white" stroke-width="0.5"/>
<circle cx="294" cy="160" r="4.75" stroke="white" stroke-width="0.5"/>
<circle cx="304" cy="170" r="4.75" stroke="white" stroke-width="0.5"/>
</g>
</svg>
