<svg width="161" height="110" viewBox="0 0 161 110" fill="none" xmlns="http://www.w3.org/2000/svg">
<g opacity="0.75">
<path fill-rule="evenodd" clip-rule="evenodd" d="M86.8072 3.10506C83.6045 -1.03503 77.3545 -1.03502 74.1518 3.10507L1.68708 96.7803C-2.38028 102.038 1.36731 109.675 8.01478 109.675H152.944C159.592 109.675 163.339 102.038 159.272 96.7803L86.8072 3.10506ZM60.6133 98.8003C60.8383 99.0253 61.2133 99.1753 61.6633 99.1753C61.9633 99.1753 62.4133 99.1753 62.7133 98.8003L80.4883 80.2753L98.2633 98.8003C98.5633 99.1753 99.0133 99.1753 99.3133 99.1753C99.7633 99.1753 100.138 99.0253 100.363 98.8003L104.713 94.3753C105.013 94.0753 105.163 93.7003 105.163 93.3253C105.163 92.9503 105.013 92.6503 104.713 92.3503L86.9383 73.9003L104.713 55.4503C105.013 55.1503 105.163 54.8502 105.163 54.4753C105.163 54.1003 105.013 53.7253 104.713 53.4253L100.363 49.0003C100.138 48.7753 99.7633 48.6253 99.3133 48.6253C99.0133 48.6253 98.5633 48.6253 98.2633 49.0003L80.4883 67.5253L62.7133 49.0003C62.4133 48.6253 61.9633 48.6253 61.6633 48.6253C61.2133 48.6253 60.8383 48.7753 60.6133 49.0003L56.2633 53.4253C55.9633 53.7253 55.8133 54.1003 55.8133 54.4753C55.8133 54.8502 55.9633 55.1503 56.2633 55.4503L74.0383 73.9003L56.2633 92.3503C55.9633 92.6503 55.8133 92.9503 55.8133 93.3253C55.8133 93.7003 55.9633 94.0753 56.2633 94.3753L60.6133 98.8003Z" fill="white"/>
</g>
</svg>
