<svg width="161" height="110" viewBox="0 0 161 110" fill="none" xmlns="http://www.w3.org/2000/svg">
<g opacity="0.75">
<path fill-rule="evenodd" clip-rule="evenodd" d="M74.1518 3.10507C77.3545 -1.03502 83.6045 -1.03503 86.8072 3.10506L159.272 96.7803C163.339 102.038 159.592 109.675 152.944 109.675H8.01478C1.36731 109.675 -2.38028 102.038 1.68708 96.7803L74.1518 3.10507ZM70.9397 93.9253V92.3503C73.6397 92.3503 75.2147 91.8503 75.6647 90.8503V65.4252C73.0647 65.2252 71.4897 65.1253 70.9397 65.1253V63.4003C71.8897 63.4003 74.1897 62.8753 77.8397 61.8252C81.4897 60.7252 83.8897 60.1753 85.0397 60.1753V90.8503C85.4897 91.8503 87.0647 92.3503 89.7647 92.3503V93.9253H70.9397ZM76.4897 54.1003C77.7397 54.9503 78.9647 55.3753 80.1647 55.3753C81.4147 55.3753 82.5897 54.9503 83.6897 54.1003C84.8397 53.2002 85.4147 52.2252 85.4147 51.1752C85.4147 49.9252 84.7897 48.8753 83.5397 48.0252C82.3397 47.1252 81.1397 46.6752 79.9397 46.6752C78.6897 46.6752 77.4897 47.1252 76.3397 48.0252C75.2397 48.9252 74.6897 49.9003 74.6897 50.9503C74.6897 52.1503 75.2897 53.2002 76.4897 54.1003Z" fill="white"/>
</g>
</svg>
