<svg width="202" height="162" viewBox="0 0 202 162" fill="none" xmlns="http://www.w3.org/2000/svg">
<path d="M82.8249 3.28976L82.9244 26.9845L28.3668 17.7256L22.7916 17.6261C22.1544 17.5464 21.9419 18.1178 21.4973 18.5221L18.6101 17.7256C14.9597 17.7256 7.11817 17.8387 4.97069 17.7256C3.07909 17.6261 1.58573 19.0199 1.08795 21.1106C1.02158 64.6173 0.928661 152.427 1.08795 155.613C1.24725 158.799 2.94189 160.392 4.37336 160.392H86.5086L119.164 160.193H122.449C147.239 160.16 197.197 160.113 198.71 160.193C200.223 160.272 200.867 158.965 201 158.301C200.834 112.737 200.482 21.3097 200.403 20.115C200.323 18.9203 199.639 18.5553 199.308 18.5221L118.068 1.09949H110.104C108.909 1.09949 108.942 1.1178 108.442 1.6178C107.413 1.31912 105.325 1.09949 104.927 1.09949H97.2608C96.305 1.09949 95.5683 1.69683 95.4688 1.99551L92.0838 1.09949H84.7165C82.8243 1.09949 82.8247 2.58735 82.8249 3.26919V3.28976Z" fill="#4B4A4A" stroke="black" stroke-width="1.6"/>
<path d="M95.9665 151.929L97.2608 150.436V125.531L95.4421 123.618V2.28553L93.4776 1.49762C92.7475 1.26532 91.1877 1.29852 91.1877 3.68791C91.1877 6.07729 91.5196 107.626 91.6855 158.102C91.6855 158.832 92.0838 160.292 93.6767 160.292H97.659C96.1457 160.292 95.9002 159.33 95.9665 158.799V151.929Z" fill="#353535" stroke="black" stroke-width="0.8"/>
<path d="M121.354 1.7963L119.462 1.39808C118.632 1.13259 116.973 1.27861 116.973 3.98658C116.973 6.69455 117.239 108.19 117.371 158.6C117.371 159.131 117.65 160.193 118.765 160.193" stroke="black" stroke-width="0.8"/>
<path d="M111.398 160.193C111.122 160.264 110.76 160.292 110.392 160.214L106.619 160.292C105.026 160.292 104.495 158.965 104.429 158.301C104.296 108.39 104.031 7.73 104.031 4.38486C104.031 1.03972 105.545 1.49762 106.442 1.61786L108.312 1.87064L109.442 1.61225C109.594 1.55089 109.761 1.51062 109.942 1.49768L109.442 1.61225C108.655 1.92859 108.256 2.8056 108.312 3.38928C108.444 53.5664 108.71 154.618 108.71 157.405C108.71 159.333 109.567 160.039 110.392 160.214L111.398 160.193Z" fill="#353535" stroke="black" stroke-width="0.8"/>
<path d="M19.9421 151.618C19.909 109.804 20.0238 25.4114 20.1035 22.3052C20.203 20.9778 21.1103 18.6753 22.9421 18.1178L20.9421 18.6178L18.6101 17.7256C15.4242 17.2278 13.6322 18.522 12.9353 21.5088V155.912C13.4331 159.197 15.9421 160.392 18.9421 160.392H22.692C19.4421 160.392 19.9421 155.912 19.9421 151.618Z" fill="#353535" stroke="black" stroke-width="0.8"/>
<path d="M83.3219 27.6178C83.3883 68.6024 83.1234 151.073 83.1234 155.613C82.9424 160.118 85.1146 160.591 86.5084 160.392" stroke="black" stroke-width="0.8"/>
<path d="M28.3669 17.7256C27.4709 17.9911 25.6788 19.2787 25.6788 22.3052C25.6788 25.3318 25.6788 112.438 25.6788 155.613C25.6788 157.106 25.8779 160.392 30.6567 160.392" stroke="black" stroke-width="0.8"/>
<path d="M95.6673 123.655L97.2022 125.618C97.1356 90.9639 97.0272 36.0392 96.9618 3.09076C96.9286 2.42704 97.4419 1.11783 99.2516 1.0994C95.9419 0.617798 95.269 1.99568 95.269 2.89173L95.6673 123.655Z" fill="url(#paint0_linear_15_110)"/>
<path d="M97.2022 125.618L95.6673 123.655L95.269 2.89173C95.269 1.99568 95.9419 0.617798 99.2516 1.0994C97.4419 1.11783 96.9286 2.42704 96.9618 3.09076C97.0613 53.2347 97.2604 154.279 97.2604 157.306C97.2604 160.332 98.7538 160.392 99.5503 160.292" stroke="black" stroke-width="0.8"/>
<path d="M13.6318 29.5729V24.6946C13.6318 23.7986 13.6517 22.803 14.926 22.803C16.2004 22.803 16.1872 23.8981 16.1208 24.6946V29.5729C16.1208 31.0065 13.6318 30.9667 13.6318 29.5729Z" fill="url(#paint1_linear_15_110)"/>
<path d="M13.6318 34.5508C13.6318 36.9402 16.1208 36.7809 16.1208 34.5508C16.1208 32.3207 13.6318 32.3207 13.6318 34.5508Z" fill="url(#paint2_linear_15_110)"/>
<path d="M13.6318 29.5729V24.6946C13.6318 23.7986 13.6517 22.803 14.926 22.803C16.2004 22.803 16.1872 23.8981 16.1208 24.6946V29.5729C16.1208 31.0065 13.6318 30.9667 13.6318 29.5729Z" stroke="black" stroke-width="0.4"/>
<path d="M13.6318 34.5508C13.6318 36.9402 16.1208 36.7809 16.1208 34.5508C16.1208 32.3207 13.6318 32.3207 13.6318 34.5508Z" stroke="black" stroke-width="0.4"/>
<defs>
<linearGradient id="paint0_linear_15_110" x1="97.4097" y1="1" x2="97.4097" y2="160.317" gradientUnits="userSpaceOnUse">
<stop stop-color="#71B6F7"/>
<stop offset="1" stop-color="#466AC7" stop-opacity="0"/>
</linearGradient>
<linearGradient id="paint1_linear_15_110" x1="14.8881" y1="22.803" x2="14.8881" y2="36.2836" gradientUnits="userSpaceOnUse">
<stop stop-color="#71B6F6"/>
<stop offset="1" stop-color="#71B2FE" stop-opacity="0"/>
</linearGradient>
<linearGradient id="paint2_linear_15_110" x1="14.8881" y1="22.803" x2="14.8881" y2="36.2836" gradientUnits="userSpaceOnUse">
<stop stop-color="#71B6F6"/>
<stop offset="1" stop-color="#71B2FE" stop-opacity="0"/>
</linearGradient>
</defs>
</svg>
