<svg width="155" height="178" viewBox="0 0 155 178" fill="none" xmlns="http://www.w3.org/2000/svg">
<path d="M51.9612 16.2591C49.0685 16.6208 48.8727 18.2937 49.1363 19.0849C38.4017 20.6673 18.2884 25.3016 6.76281 28.9186C5.51986 29.3707 3.93791 31.7443 3.93791 36.8307C3.93791 40.8998 4.05091 74.0554 4.05091 90.1811C4.05091 91.3114 3.93797 92.4417 6.7628 91.6505V93.572C3.93795 94.9284 4.02815 95.2551 4.05089 97.302C4.38993 127.82 1 172.693 1 174.615C1 176.152 1.90397 176.461 2.35595 176.423C24.0888 176.725 68.4586 177.237 72.0745 176.876L76.9334 176.65L78.4023 176.536C80.0972 176.536 80.8882 175.406 81.1142 174.05L131.849 174.502L148.347 174.276C149.025 173.824 152.867 173.033 153.884 173.259C154.516 172.897 152.415 127.519 151.285 104.875L150.042 85.7729L149.477 71.9832C149.928 63.4028 151.36 26.884 152.415 9.70334C152.595 6.62891 151.85 6.31243 148.799 6.76454L129.363 9.81639L128.799 2.92151C128.912 0.99998 127.2 0.999883 125.974 1H125.973C125.747 1.00002 125.069 1.00009 123.714 1.22604C121.002 1.56513 55.6901 15.3549 51.9612 16.2591Z" stroke="black" stroke-width="1.6"/>
<path d="M84.5041 20.6673L69.2496 22.8149V21.0064C69.2119 19.65 68.2326 16.9373 64.6168 16.9373C57.611 17.3894 54.6731 17.9546 49.1363 19.0849C48.8727 18.2937 49.0685 16.6208 51.9612 16.2591C55.6901 15.3549 121.002 1.56513 123.714 1.22604C125.069 1.00009 125.747 1.00002 125.973 1H125.974C127.2 0.999883 128.911 0.99998 128.799 2.92151L133.996 89.5029L135.917 169.868V172.015C135.465 174.163 134.561 174.502 131.849 174.502L81.1142 174.163V172.806C82.3571 141.196 84.9561 77.6347 85.1821 75.8262C85.408 74.1308 85.2951 74.1308 84.7301 74.2438L81.5662 75.148V73.3395C82.4325 73.0381 84.3911 72.3675 85.295 72.0962C85.408 71.7571 87.6679 26.2058 87.6679 23.267C87.8487 21.0064 85.634 20.5919 84.5041 20.6673Z" fill="#6F6F6F" stroke="black" stroke-width="0.8"/>
<path d="M148.234 106.91C148.234 102.727 148.912 82.7211 149.477 71.9832L150.042 85.7729L151.285 104.875C152.415 127.519 154.516 172.897 153.884 173.259C152.867 173.032 148.234 173.711 148.347 174.276H146.2C147.104 174.05 146.878 173.711 147.104 173.259C148.008 168.172 147.895 111.318 148.234 106.91Z" fill="#808080"/>
<path d="M149.477 71.9832C148.422 89.1638 149.928 63.4028 149.477 71.9832ZM149.477 71.9832C148.912 82.7211 148.234 102.727 148.234 106.91C147.895 111.318 148.008 168.172 147.104 173.259C146.878 173.711 147.104 174.05 146.2 174.276C146.614 174.276 147.624 174.276 148.347 174.276C148.234 173.711 152.867 173.032 153.884 173.259C154.516 172.897 152.415 127.519 151.285 104.875L150.042 85.7729L149.477 71.9832ZM149.251 106.457L149.025 160.712" stroke="black" stroke-width="0.8"/>
<path d="M133.996 89.5029L129.363 10.7206L129.589 10.7206C141.341 11.5344 145.334 19.3486 145.861 23.154V39.8825C145.183 81.4024 143.804 165.279 143.714 168.624C143.624 171.97 141.341 173.108 140.211 173.259H135.691L135.917 172.015V169.868L133.996 89.5029Z" fill="black" stroke="black" stroke-width="0.8"/>
<path d="M148.799 6.76456L129.589 9.70335V10.7206C141.341 11.5345 145.334 19.3487 145.861 23.154V39.8825C145.183 81.4024 143.804 165.279 143.714 168.624C143.624 171.97 141.341 173.108 140.211 173.259H135.691L134.9 174.276H146.2C147.104 174.05 146.878 173.711 147.104 173.259C148.008 168.172 147.895 111.318 148.234 106.91C148.234 102.728 148.912 82.7211 149.477 71.9832C149.928 63.4029 151.36 26.884 152.415 9.70335C152.595 6.62892 151.85 6.31245 148.799 6.76456Z" fill="url(#paint0_radial_19_208)" stroke="black" stroke-width="0.8"/>
<path d="M84.7301 74.2438L81.5662 75.148L81.1142 87.0162C79.8713 114.859 77.408 171.111 77.4984 173.372C77.5888 175.632 76.5567 176.423 76.0294 176.536H78.4023C80.8882 176.763 81.0766 174.313 81.1142 172.806C82.3572 141.196 84.9561 77.6347 85.1821 75.8262C85.4081 74.1308 85.2951 74.1308 84.7301 74.2438Z" fill="url(#paint1_radial_19_208)" stroke="black" stroke-width="0.8"/>
<path d="M6.76283 28.9185C18.2884 25.3015 54.1081 16.9373 64.6168 16.9373C68.2326 16.9373 69.2119 19.65 69.2496 21.0064C69.8523 31.7819 71.5095 56.6562 71.5095 69.9486C53.2042 74.4698 18.2884 85.4338 9.13574 90.7462C3.59893 93.1199 4.05092 91.3114 4.05092 90.1811C4.05092 74.0554 3.93793 40.8997 3.93793 36.8306C3.93793 31.7443 5.51987 29.3706 6.76283 28.9185Z" fill="#6F6F6F" stroke="black" stroke-width="0.8"/>
<path d="M71.7355 73.0004C65.2948 73.3395 26.5372 85.2723 8.2318 93.1198C5.85889 94.1371 4.02631 93.9747 4.05095 97.3019C4.27694 127.82 1.00006 172.693 1.00006 174.615C1.00006 176.152 1.90403 176.461 2.35601 176.423C24.0889 176.725 68.4587 177.237 72.0745 176.875C74.2215 176.423 74.2215 175.632 74.7864 172.693C75.1776 170.659 71.9615 78.991 71.7355 73.0004Z" fill="#6F6F6F"/>
<path d="M8.2318 93.1198L8.38941 93.4875L8.2318 93.1198ZM71.7355 73.0004L72.1353 72.9853C72.1312 72.8782 72.0844 72.7773 72.0053 72.705C71.9263 72.6328 71.8215 72.5953 71.7145 72.6009L71.7355 73.0004ZM74.7864 172.693L75.1793 172.769L74.7864 172.693ZM72.0745 176.875L72.1143 177.274L72.1358 177.271L72.157 177.267L72.0745 176.875ZM2.35601 176.423L2.36156 176.023L2.34214 176.023L2.32279 176.025L2.35601 176.423ZM4.05095 97.3019L3.65096 97.3049L4.05095 97.3019ZM8.38941 93.4875C17.5234 89.5717 31.774 84.6314 44.5525 80.6261C50.9402 78.624 56.9551 76.8571 61.7733 75.57C66.6103 74.2778 70.1967 73.4819 71.7566 73.3998L71.7145 72.6009C70.054 72.6883 66.3804 73.5112 61.5668 74.7971C56.7345 76.088 50.7083 77.8583 44.3133 79.8628C31.5264 83.8706 17.2455 88.8204 8.0742 92.7522L8.38941 93.4875ZM71.3358 73.0154C71.4488 76.0098 72.3093 100.424 73.0926 124.343C73.4843 136.303 73.8567 148.139 74.1067 157.112C74.2317 161.598 74.3261 165.368 74.377 168.079C74.4025 169.435 74.417 170.524 74.4191 171.305C74.4202 171.696 74.4181 172.008 74.4129 172.236C74.4102 172.35 74.4068 172.441 74.4028 172.51C74.4008 172.544 74.3988 172.57 74.3969 172.59C74.3948 172.612 74.3933 172.619 74.3936 172.618L75.1793 172.769C75.1991 172.665 75.2075 172.477 75.2126 172.255C75.2181 172.016 75.2202 171.697 75.2191 171.303C75.217 170.515 75.2023 169.421 75.1768 168.064C75.1259 165.349 75.0314 161.576 74.9064 157.089C74.6563 148.115 74.2839 136.278 73.8922 124.317C73.1088 100.397 72.2483 75.9816 72.1353 72.9853L71.3358 73.0154ZM74.3936 172.618C74.2506 173.362 74.1473 173.948 74.0363 174.434C73.9255 174.919 73.8151 175.264 73.6725 175.525C73.4158 175.996 73.0187 176.268 71.9921 176.484L72.157 177.267C73.2774 177.031 73.9536 176.681 74.3749 175.908C74.5713 175.548 74.701 175.116 74.8162 174.612C74.9313 174.109 75.0398 173.494 75.1793 172.769L74.3936 172.618ZM72.0347 176.477C71.1565 176.565 67.7335 176.602 62.7119 176.6C57.7058 176.598 51.1427 176.558 44.0125 176.498C29.7525 176.378 13.2276 176.174 2.36156 176.023L2.35047 176.823C13.2173 176.974 29.7438 177.178 44.0058 177.298C51.1367 177.358 57.7023 177.398 62.7116 177.4C67.7055 177.402 71.1847 177.367 72.1143 177.274L72.0347 176.477ZM2.32279 176.025C2.19534 176.035 1.97213 175.996 1.78203 175.818C1.60017 175.647 1.40006 175.303 1.40006 174.615H0.600061C0.600061 175.463 0.851939 176.043 1.23505 176.402C1.60994 176.753 2.0647 176.849 2.38924 176.822L2.32279 176.025ZM1.40006 174.615C1.40006 174.151 1.60316 171.01 1.90779 166.04C2.21151 161.086 2.61414 154.341 3.00972 146.703C3.80077 131.428 4.56403 112.57 4.45094 97.299L3.65096 97.3049C3.76387 112.552 3.00168 131.39 2.21079 146.661C1.8154 154.296 1.41293 161.038 1.10929 165.991C0.806572 170.93 0.600061 174.118 0.600061 174.615H1.40006ZM4.45094 97.299C4.44503 96.5005 4.55133 95.9479 4.72647 95.5484C4.89774 95.1578 5.1445 94.8911 5.46459 94.6772C5.79546 94.456 6.20456 94.2906 6.70816 94.1114C7.19979 93.9364 7.78078 93.7484 8.38941 93.4875L8.0742 92.7522C7.49637 92.9999 6.95844 93.1731 6.43986 93.3577C5.93323 93.5381 5.44081 93.7308 5.02 94.0121C4.58841 94.3006 4.23334 94.6808 3.99378 95.2272C3.75809 95.7649 3.64456 96.4397 3.65096 97.3049L4.45094 97.299Z" fill="black"/>
<path d="M84.5041 20.6672L69.7016 22.7018V23.7191H73.9954C82.3572 23.7191 81.9052 32.4224 82.2442 36.0394C82.4249 36.3107 81.8675 61.0191 81.5662 73.3395C82.4325 73.0381 84.3911 72.3674 85.295 72.0961C85.408 71.757 87.668 26.2057 87.668 23.2669C87.8488 21.0063 85.634 20.5919 84.5041 20.6672Z" fill="url(#paint2_radial_19_208)" stroke="black" stroke-width="0.8"/>
<path d="M82.1312 36.0476C82.312 36.3189 81.7545 61.0274 81.4532 73.3477V75.1897L81.0012 87.0579C79.7583 114.901 77.295 171.153 77.3854 173.413C77.4758 175.674 76.4437 176.465 75.9164 176.578L72.1875 176.763C74.3345 176.31 74.3345 175.519 74.8994 172.58C75.2906 170.546 72.0745 78.878 71.8485 72.8874H70.2666V70.4007L71.5096 69.8356C71.5096 56.5432 70.1913 34.3817 69.5886 23.6061L73.8825 23.7273C82.2442 23.7273 81.7922 32.4306 82.1312 36.0476Z" fill="#020202"/>
<path d="M81.4532 73.3477L81.0532 73.3379V73.3477H81.4532ZM82.1312 36.0476L81.7329 36.0849L81.7423 36.1854L81.7983 36.2694L82.1312 36.0476ZM73.8825 23.7273L73.8712 24.1273H73.8825V23.7273ZM69.5886 23.6061L69.5999 23.2062L69.1649 23.194L69.1892 23.6284L69.5886 23.6061ZM71.5096 69.8356L71.6751 70.1997L71.9096 70.0931V69.8356H71.5096ZM71.8485 72.8874L72.2483 72.8723C72.2402 72.6574 72.0636 72.4874 71.8485 72.4874V72.8874ZM74.8994 172.58L74.5066 172.505L74.8994 172.58ZM70.2666 72.8874H69.8666V73.2874H70.2666V72.8874ZM70.2666 70.4007L70.101 70.0366L69.8666 70.1432V70.4007H70.2666ZM75.9164 176.578L75.9362 176.978L75.9685 176.976L76.0002 176.969L75.9164 176.578ZM77.3854 173.413L77.785 173.397L77.3854 173.413ZM81.0012 87.0579L81.4008 87.0757L81.4009 87.0731L81.0012 87.0579ZM81.4532 75.1897L81.8529 75.2049L81.8532 75.1973V75.1897H81.4532ZM72.1875 176.763L72.1051 176.371L72.2073 177.162L72.1875 176.763ZM81.8531 73.3575C82.0038 67.197 82.2185 57.9391 82.3729 50.1872C82.4501 46.3114 82.5123 42.8112 82.5439 40.2626C82.5596 38.9886 82.5678 37.9507 82.5663 37.2221C82.5656 36.8583 82.5624 36.5686 82.5565 36.3642C82.5536 36.2628 82.5498 36.1775 82.5448 36.1128C82.5424 36.0813 82.5392 36.0479 82.5345 36.0172C82.5322 36.0022 82.5285 35.981 82.5224 35.9577C82.5193 35.9456 82.5047 35.8868 82.464 35.8258L81.7983 36.2694C81.7605 36.2127 81.7487 36.1611 81.7482 36.1591C81.7463 36.1519 81.7452 36.1465 81.7446 36.1437C81.7441 36.1408 81.7438 36.1391 81.7438 36.139C81.7438 36.1388 81.7442 36.1416 81.7449 36.1483C81.7456 36.1547 81.7463 36.1632 81.7472 36.1742C81.7507 36.2197 81.754 36.29 81.7568 36.3875C81.7625 36.5808 81.7656 36.8619 81.7663 37.2237C81.7678 37.9464 81.7597 38.9796 81.7439 40.2527C81.7124 42.7982 81.6503 46.296 81.5731 50.1713C81.4187 57.9215 81.204 67.1781 81.0533 73.3379L81.8531 73.3575ZM82.5294 36.0103C82.3656 34.2625 82.3893 31.0856 81.3904 28.392C80.8855 27.0305 80.1102 25.7575 78.8945 24.8262C77.6749 23.8918 76.0459 23.3273 73.8825 23.3273V24.1273C75.8999 24.1273 77.35 24.6507 78.408 25.4612C79.4699 26.2748 80.1706 27.4037 80.6403 28.6702C81.5906 31.2325 81.5578 34.2158 81.7329 36.0849L82.5294 36.0103ZM73.8938 23.3274L69.5999 23.2062L69.5773 24.0059L73.8712 24.1271L73.8938 23.3274ZM71.9096 69.8356C71.9096 56.529 70.5903 34.3528 69.988 23.5837L69.1892 23.6284C69.7923 34.4105 71.1096 56.5574 71.1096 69.8356H71.9096ZM71.4488 72.9025C71.5618 75.8968 72.4223 100.311 73.2056 124.231C73.5973 136.19 73.9697 148.026 74.2197 156.999C74.3447 161.485 74.4391 165.255 74.49 167.966C74.5154 169.322 74.53 170.411 74.5321 171.192C74.5332 171.583 74.5311 171.895 74.5258 172.123C74.5232 172.237 74.5198 172.328 74.5158 172.397C74.5138 172.431 74.5118 172.457 74.5099 172.477C74.5077 172.499 74.5063 172.506 74.5066 172.505L75.2922 172.656C75.3121 172.552 75.3205 172.364 75.3256 172.142C75.3311 171.903 75.3332 171.584 75.3321 171.19C75.33 170.402 75.3153 169.308 75.2898 167.951C75.2389 165.236 75.1444 161.463 75.0194 156.976C74.7693 148.002 74.3969 136.165 74.0052 124.204C73.2218 100.284 72.3613 75.8686 72.2483 72.8723L71.4488 72.9025ZM71.8485 72.4874H70.2666V73.2874H71.8485V72.4874ZM70.6666 72.8874V70.4007H69.8666V72.8874H70.6666ZM70.4322 70.7649L71.6751 70.1997L71.344 69.4715L70.101 70.0366L70.4322 70.7649ZM76.0002 176.969C76.7795 176.802 77.8804 175.782 77.785 173.397L76.9857 173.429C77.0711 175.566 76.1079 176.128 75.8326 176.187L76.0002 176.969ZM77.785 173.397C77.7633 172.853 77.8989 168.94 78.1371 162.898C78.3747 156.872 78.713 148.759 79.0929 139.846C79.8528 122.021 80.7794 100.997 81.4008 87.0757L80.6016 87.04C79.9801 100.962 79.0536 121.986 78.2937 139.812C77.9137 148.725 77.5754 156.839 77.3377 162.866C77.1007 168.877 76.9623 172.843 76.9857 173.429L77.785 173.397ZM81.4009 87.0731L81.8529 75.2049L81.0535 75.1744L80.6015 87.0426L81.4009 87.0731ZM81.8532 75.1897V73.3477H81.0532V75.1897H81.8532ZM74.5066 172.505C74.3636 173.249 74.2602 173.835 74.1493 174.321C74.0385 174.806 73.9281 175.151 73.7855 175.412C73.5288 175.883 73.1316 176.155 72.1051 176.371L72.27 177.154C73.3903 176.918 74.0666 176.568 74.4879 175.795C74.6843 175.435 74.814 175.003 74.9292 174.499C75.0443 173.996 75.1528 173.381 75.2922 172.656L74.5066 172.505ZM75.8966 176.179L72.1678 176.363L72.2073 177.162L75.9362 176.978L75.8966 176.179Z" fill="black"/>
<path d="M68.7977 70.6268L70.2666 70.2877V73.1135L68.7977 73.4526V70.6268Z" fill="url(#paint3_linear_19_208)" stroke="black" stroke-width="0.8"/>
<path d="M68.7977 73.4526V70.6268C50.4923 75.1481 18.2885 85.4338 9.13579 90.7463L6.76288 91.6505V93.572L8.23183 93.1199C26.5372 85.2725 62.3569 73.7917 68.7977 73.4526Z" fill="black" stroke="black" stroke-width="0.8"/>
<defs>
<radialGradient id="paint0_radial_19_208" cx="0" cy="0" r="1" gradientUnits="userSpaceOnUse" gradientTransform="translate(83.7131 68.2532) rotate(69.2893) scale(198.418 233.613)">
<stop stop-color="#2E4FFF"/>
<stop offset="0.34375" stop-color="#495492" stop-opacity="0.960938"/>
<stop offset="1" stop-color="#575757" stop-opacity="0.94"/>
</radialGradient>
<radialGradient id="paint1_radial_19_208" cx="0" cy="0" r="1" gradientUnits="userSpaceOnUse" gradientTransform="translate(45.7465 85.8859) rotate(72.4204) scale(115.604 76.7929)">
<stop stop-color="#2E5BFC"/>
<stop offset="1" stop-color="#9A9A9A"/>
</radialGradient>
<radialGradient id="paint2_radial_19_208" cx="0" cy="0" r="1" gradientUnits="userSpaceOnUse" gradientTransform="translate(61.6789 37.1697) rotate(-29.8696) scale(34.2704 78.6204)">
<stop stop-color="#2E5BFC"/>
<stop offset="1" stop-color="#9A9A9A"/>
</radialGradient>
<linearGradient id="paint3_linear_19_208" x1="68.9107" y1="72.7744" x2="69.9277" y2="72.4355" gradientUnits="userSpaceOnUse">
<stop stop-color="#131528"/>
<stop offset="1" stop-color="#0028B4"/>
</linearGradient>
</defs>
</svg>
