<svg width="161" height="110" viewBox="0 0 161 110" fill="none" xmlns="http://www.w3.org/2000/svg">
<g id="MsgBoxIcon" opacity="0.75">
<path id="Vector" fill-rule="evenodd" clip-rule="evenodd" d="M74.1518 3.10507C77.3545 -1.03502 83.6045 -1.03503 86.8072 3.10506L159.272 96.7803C163.339 102.038 159.592 109.675 152.944 109.675H8.01478C1.36731 109.675 -2.38028 102.038 1.68708 96.7803L74.1518 3.10507ZM76.8377 80.9253C76.8377 79.0753 77.2127 77.3503 77.9627 75.7503C78.7627 74.1003 79.6377 72.7253 80.5877 71.6253C81.5377 70.5253 82.3877 68.9503 83.1377 66.9003C83.9377 64.8503 84.3377 62.5252 84.3377 59.9253C84.3377 57.2752 83.7627 55.1253 82.6127 53.4753C81.4627 51.7752 79.9127 50.9253 77.9627 50.9253C76.1127 50.9253 74.7377 51.4753 73.8377 52.5753C72.9377 53.6753 72.4877 54.9002 72.4877 56.2502C72.4877 56.8503 72.6627 57.5003 73.0127 58.2003C73.4127 58.8503 73.6127 59.4503 73.6127 60.0003C73.6127 60.8503 73.2627 61.6253 72.5627 62.3253C71.8627 62.9753 71.0127 63.3003 70.0127 63.3003C68.7627 63.3003 67.7877 62.9002 67.0877 62.1003C66.4377 61.2503 66.1127 60.1253 66.1127 58.7253C66.1127 56.2253 67.2377 53.9253 69.4877 51.8253C71.7877 49.7253 74.8627 48.6752 78.7127 48.6752C83.6127 48.6752 87.3377 49.7253 89.8877 51.8253C92.4377 53.9253 93.7127 56.7503 93.7127 60.3003C93.7127 62.2503 93.2127 64.1253 92.2127 65.9253C91.2627 67.6753 90.0877 69.2002 88.6877 70.5003C87.3377 71.8003 85.9627 73.0253 84.5627 74.1753C83.1627 75.2753 81.9627 76.4253 80.9627 77.6253C80.0127 78.7753 79.5377 79.8753 79.5377 80.9253C79.5377 81.1753 79.3627 81.4253 79.0127 81.6753C78.6627 81.8753 78.3877 81.9753 78.1877 81.9753C77.9877 81.9753 77.7127 81.8753 77.3627 81.6753C77.0127 81.4253 76.8377 81.1753 76.8377 80.9253ZM74.7377 88.5752C73.7377 89.4252 73.2377 90.5753 73.2377 92.0253C73.2377 93.4253 73.7877 94.5503 74.8877 95.4003C76.0377 96.2503 77.2127 96.6753 78.4127 96.6753C79.7627 96.6753 80.9627 96.2253 82.0127 95.3253C83.0627 94.4253 83.5877 93.2503 83.5877 91.8003C83.5877 90.4003 83.0127 89.3003 81.8627 88.5003C80.7127 87.6503 79.5377 87.2253 78.3377 87.2253C76.9877 87.2253 75.7877 87.6752 74.7377 88.5752Z" fill="white"/>
</g>
</svg>
