<svg width="56" height="45" viewBox="0 0 56 45" fill="none" xmlns="http://www.w3.org/2000/svg">
<path d="M21.0767 13.9592L21.4664 13.646L21.1532 13.2562L18.0212 9.35874L17.708 8.96899L17.3182 9.28219C13.3555 12.4667 10.8006 17.3549 10.774 22.8444C10.7487 28.0541 13.0063 32.746 16.5978 35.9648L16.9701 36.2985L17.3038 35.9262L20.6409 32.2028L20.9747 31.8305L20.6023 31.4967C18.2341 29.3743 16.7573 26.2964 16.7739 22.8735C16.7914 19.2681 18.4627 16.0598 21.0767 13.9592ZM35.4906 13.3278L35.1736 13.7144L35.5602 14.0315C38.1522 16.1574 39.7911 19.3808 39.7737 22.985C39.7571 26.4053 38.2528 29.4665 35.8674 31.5658L35.4921 31.8961L35.8224 32.2715L39.1257 36.025L39.456 36.4003L39.8313 36.07C43.449 32.8863 45.7483 28.2197 45.7736 23.0141C45.8002 17.5264 43.2945 12.6151 39.3651 9.39228L38.9785 9.07521L38.6614 9.46181L35.4906 13.3278ZM14.5281 6.13226L14.9158 5.81658L14.6002 5.42883L11.4434 1.55134L11.1277 1.16359L10.74 1.47926C4.69934 6.39708 0.817317 13.8893 0.776548 22.296C0.73577 30.7045 4.54663 38.2355 10.5416 43.2116L10.9263 43.531L11.2457 43.1463L14.4391 39.299L14.7585 38.9142L14.3738 38.5949C9.70068 34.716 6.74477 28.8631 6.77648 22.3251C6.80818 15.7885 9.8194 9.9657 14.5281 6.13226ZM41.6469 5.99131L41.3154 6.36567L41.6898 6.69711C46.0662 10.5718 48.8065 16.2319 48.776 22.5288C48.7454 28.8257 45.9503 34.4591 41.5363 38.2911L41.1588 38.6189L41.4865 38.9965L44.7644 42.7721L45.0922 43.1497L45.4698 42.8219C51.1333 37.905 54.7366 30.655 54.7759 22.5579C54.8152 14.4609 51.2825 7.17634 45.6671 2.20477L45.2927 1.87332L44.9613 2.24769L41.6469 5.99131ZM28.2496 27.9292C31.0109 27.9426 33.2603 25.7149 33.2737 22.9535C33.2871 20.1921 31.0594 17.9427 28.298 17.9293C25.5367 17.9159 23.2873 20.1436 23.2739 22.905C23.2605 25.6664 25.4882 27.9158 28.2496 27.9292Z" fill="#5B9561" stroke="black"/>
</svg>
