<svg width="56" height="45" viewBox="0 0 56 45" fill="none" xmlns="http://www.w3.org/2000/svg">
<path d="M14.9368 6.56634L15.3245 6.25066L15.0089 5.86291L11.8521 1.98542L11.5364 1.59767L11.1487 1.91334C5.10803 6.83116 1.22601 14.3234 1.18524 22.7301C1.14446 31.1386 4.95532 38.6696 10.9503 43.6457L11.335 43.9651L11.6544 43.5803L14.8478 39.733L15.1672 39.3483L14.7824 39.029C10.1094 35.15 7.15346 29.2971 7.18517 22.7592C7.21687 16.2226 10.2281 10.3998 14.9368 6.56634ZM42.0555 6.42539L41.7241 6.79975L42.0985 7.13119C46.4749 11.0059 49.2152 16.666 49.1847 22.9628C49.1541 29.2598 46.359 34.8931 41.945 38.7252L41.5674 39.053L41.8952 39.4306L45.1731 43.2062L45.5009 43.5838L45.8785 43.256C51.542 38.3391 55.1453 31.0891 55.1846 22.9919C55.2239 14.8949 51.6911 7.61042 46.0758 2.63885L45.7014 2.30741L45.37 2.68177L42.0555 6.42539ZM21.0496 32.6368L21.3833 32.2644L21.011 31.9307C18.6428 29.8083 17.166 26.7304 17.1826 23.3075C17.1915 21.4802 17.6249 19.7562 18.3897 18.2267L23.8729 21.9925C23.751 22.4211 23.6848 22.8728 23.6826 23.339C23.6692 26.1004 25.8969 28.3498 28.6582 28.3632C31.4196 28.3766 33.669 26.1489 33.6824 23.3875C33.6847 22.9212 33.6229 22.4689 33.5052 22.0393L39.0246 18.3268C39.7746 19.8637 40.1912 21.5918 40.1824 23.419C40.1658 26.8393 38.6615 29.9005 36.2761 31.9998L35.9008 32.3301L36.2311 32.7055L39.5344 36.4589L39.8647 36.8343L40.24 36.504C43.8577 33.3203 46.157 28.6537 46.1823 23.4481C46.2089 17.9604 43.7032 13.0491 39.7738 9.82628L39.3872 9.5092L39.0701 9.8958L35.9403 13.7118C34.7937 14.5414 33.0714 15.7533 31.5635 16.7417C30.7968 17.2442 30.0935 17.6837 29.5525 17.9853C29.2805 18.137 29.0615 18.247 28.9019 18.3129C28.8447 18.3365 28.802 18.3515 28.7719 18.3606L28.6164 18.312L28.5632 18.3499C28.5578 18.3479 28.5522 18.3457 28.5464 18.3433C28.4043 18.2868 28.1985 18.1836 27.9337 18.0339C27.4088 17.7371 26.7121 17.2923 25.9451 16.7776C24.4364 15.7652 22.69 14.5061 21.5216 13.6401L18.4299 9.79273L18.1167 9.40298L17.7269 9.71618C13.7642 12.9006 11.2093 17.7889 11.1827 23.2784C11.1574 28.4881 13.415 33.18 17.0065 36.3988L17.3788 36.7325L17.7125 36.3602L21.0496 32.6368ZM28.7248 18.3719C28.7249 18.3717 28.7281 18.3711 28.734 18.3705C28.7276 18.3718 28.7247 18.3721 28.7248 18.3719Z" fill="#375297" stroke="black"/>
</svg>
