<svg width="56" height="45" viewBox="0 0 56 45" fill="none" xmlns="http://www.w3.org/2000/svg">
<path d="M21.781 14.1762L22.1708 13.863L21.8576 13.4733L18.7255 9.57578L18.4123 9.18603L18.0226 9.49923C14.0598 12.6837 11.505 17.5719 11.4784 23.0614C11.4531 28.2711 13.7107 32.963 17.3021 36.1819L17.6745 36.5156L18.0082 36.1432L21.3453 32.4198L21.679 32.0475L21.3067 31.7138C18.9385 29.5913 17.4617 26.5135 17.4783 23.0905C17.4958 19.4851 19.167 16.2768 21.781 14.1762ZM36.195 13.5449L35.8779 13.9315L36.2645 14.2486C38.8565 16.3744 40.4955 19.5978 40.478 23.2021C40.4614 26.6223 38.9572 29.6836 36.5718 31.7828L36.1964 32.1132L36.5268 32.4885L39.83 36.242L40.1603 36.6173L40.5357 36.287C44.1533 33.1033 46.4527 28.4367 46.4779 23.2312C46.5046 17.7435 43.9989 12.8321 40.0695 9.60933L39.6829 9.29225L39.3658 9.67885L36.195 13.5449ZM15.2324 6.3493L15.6202 6.03362L15.3045 5.64587L12.1478 1.76838L11.8321 1.38063L11.4443 1.6963C5.40369 6.61412 1.52166 14.1064 1.48089 22.513C1.44012 30.9215 5.25098 38.4525 11.2459 43.4287L11.6307 43.748L11.95 43.3633L15.1435 39.516L15.4628 39.1313L15.0781 38.8119C10.405 34.933 7.44912 29.0801 7.48082 22.5421C7.51252 16.0056 10.5237 10.1827 15.2324 6.3493ZM42.3512 6.20835L42.0198 6.58271L42.3941 6.91415C46.7706 10.7888 49.5109 16.449 49.4803 22.7458C49.4498 29.0427 46.6546 34.6761 42.2407 38.5082L41.8631 38.836L42.1909 39.2135L45.4688 42.9892L45.7966 43.3667L46.1741 43.0389C51.8376 38.1221 55.441 30.872 55.4803 22.7749C55.5195 14.6779 51.9868 7.39338 46.3714 2.42181L45.997 2.09037L45.6656 2.46473L42.3512 6.20835ZM28.9539 28.1463C31.7153 28.1597 33.9647 25.932 33.9781 23.1706C33.9915 20.4092 31.7638 18.1598 29.0024 18.1464C26.241 18.133 23.9916 20.3607 23.9782 23.1221C23.9648 25.8835 26.1925 28.1329 28.9539 28.1463Z" fill="#A5A759" stroke="black"/>
</svg>
