<svg width="56" height="45" viewBox="0 0 56 45" fill="none" xmlns="http://www.w3.org/2000/svg">
<path d="M21.3723 13.7424L21.7621 13.4292L21.4489 13.0394L18.3168 9.14194L18.0036 8.75219L17.6139 9.0654C13.6511 12.2499 11.0963 17.1381 11.0697 22.6276C11.0444 27.8373 13.302 32.5292 16.8935 35.748L17.2658 36.0818L17.5995 35.7094L20.9366 31.986L21.2703 31.6137L20.898 31.2799C18.5298 29.1575 17.053 26.0796 17.0696 22.6567C17.0871 19.0513 18.7583 15.843 21.3723 13.7424ZM35.7863 13.111L35.4692 13.4976L35.8558 13.8147C38.4478 15.9406 40.0868 19.164 40.0693 22.7682C40.0527 26.1885 38.5485 29.2497 36.1631 31.349L35.7878 31.6793L36.1181 32.0547L39.4213 35.8082L39.7517 36.1835L40.127 35.8532C43.7446 32.6695 46.044 28.0029 46.0692 22.7973C46.0959 17.3096 43.5902 12.3983 39.6608 9.17549L39.2742 8.85841L38.9571 9.24501L35.7863 13.111ZM14.8237 5.91546L15.2115 5.59978L14.8958 5.21204L11.7391 1.33454L11.4234 0.946791L11.0357 1.26247C4.995 6.18028 1.11297 13.6725 1.0722 22.0792C1.03142 30.4877 4.84229 38.0187 10.8372 42.9948L11.222 43.3142L11.5413 42.9295L14.7348 39.0822L15.0541 38.6974L14.6694 38.3781C9.99634 34.4992 7.04042 28.6463 7.07213 22.1083C7.10383 15.5717 10.115 9.7489 14.8237 5.91546ZM41.9425 5.77451L41.6111 6.14887L41.9854 6.48031C46.3619 10.355 49.1022 16.0151 49.0716 22.312C49.0411 28.6089 46.246 34.2423 41.832 38.0743L41.4544 38.4021L41.7822 38.7797L45.0601 42.5553L45.3879 42.9329L45.7654 42.6051C51.429 37.6882 55.0323 30.4382 55.0716 22.3411C55.1108 14.2441 51.5781 6.95954 45.9627 1.98797L45.5884 1.65653L45.2569 2.03089L41.9425 5.77451ZM28.5452 27.7124C31.3066 27.7258 33.556 25.4981 33.5694 22.7367C33.5828 19.9753 31.3551 17.7259 28.5937 17.7125C25.8323 17.6991 23.5829 19.9268 23.5695 22.6882C23.5561 25.4496 25.7838 27.699 28.5452 27.7124Z" fill="#AD4242" stroke="black"/>
</svg>
