<svg width="161" height="110" viewBox="0 0 161 110" fill="none" xmlns="http://www.w3.org/2000/svg">
<g opacity="0.75">
<path fill-rule="evenodd" clip-rule="evenodd" d="M74.1518 3.10507C77.3545 -1.03502 83.6045 -1.03503 86.8072 3.10506L159.272 96.7803C163.339 102.038 159.592 109.675 152.944 109.675H8.01478C1.36731 109.675 -2.38028 102.038 1.68708 96.7803L74.1518 3.10507ZM82.9288 69.9753C82.2288 74.9753 81.2288 77.4753 79.9288 77.4753C78.6288 77.4753 77.6288 74.9753 76.9288 69.9753C75.6288 60.8752 74.9788 54.4752 74.9788 50.7752C74.9788 49.0753 75.4788 47.8002 76.4788 46.9502C77.5288 46.1002 78.6788 45.6752 79.9288 45.6752C81.1788 45.6752 82.3038 46.1002 83.3038 46.9502C84.3538 47.8002 84.8788 49.0753 84.8788 50.7752C84.8788 52.5753 84.6038 55.9003 84.0538 60.7503C83.5038 65.5503 83.1288 68.6253 82.9288 69.9753ZM76.3288 85.5752C75.3288 86.4252 74.8288 87.5753 74.8288 89.0253C74.8288 90.4253 75.3788 91.5503 76.4788 92.4003C77.6288 93.2503 78.8038 93.6753 80.0038 93.6753C81.3538 93.6753 82.5538 93.2252 83.6038 92.3252C84.6538 91.4252 85.1788 90.2503 85.1788 88.8003C85.1788 87.4003 84.6038 86.3003 83.4538 85.5003C82.3038 84.6503 81.1288 84.2253 79.9288 84.2253C78.5788 84.2253 77.3788 84.6752 76.3288 85.5752Z" fill="white"/>
</g>
</svg>
